<svg xmlns="http://www.w3.org/2000/svg" width="315" height="336" viewBox="0 0 315 336"><defs><style>.a{fill:#fff;}.b{fill:#333;font-size:14px;font-family:ArialMT, Arial;}.c{fill:#fc0;}.d{font-size:16px;font-family:Arial-BoldMT, Arial;font-weight:700;}</style></defs><g transform="translate(-488 -232)"><rect class="a" width="315" height="298" rx="10" transform="translate(488 270)"/><text class="b" transform="translate(510 368)"><tspan x="19.519" y="13">You have a previously saved session. </tspan><tspan x="19.01" y="35">Would you like to continue or start the </tspan><tspan x="49.221" y="57">module from the beginning?</tspan></text><g transform="translate(162 -2)"><circle class="c" cx="38" cy="38" r="38" transform="translate(446 234)"/><g transform="translate(451 239)"><path class="a" d="M60.832,16.237A32.465,32.465,0,0,0,48.968,4.372,31.89,31.89,0,0,0,32.6,0,31.892,31.892,0,0,0,16.238,4.372,32.457,32.457,0,0,0,4.373,16.237,31.889,31.889,0,0,0,0,32.6,31.9,31.9,0,0,0,4.372,48.967,32.473,32.473,0,0,0,16.237,60.832,31.893,31.893,0,0,0,32.6,65.2a31.894,31.894,0,0,0,16.365-4.372A32.457,32.457,0,0,0,60.832,48.967,31.9,31.9,0,0,0,65.2,32.6,31.9,31.9,0,0,0,60.832,16.237Zm-22.8,36.7a1.394,1.394,0,0,1-.383,1,1.237,1.237,0,0,1-.934.4H28.569a1.452,1.452,0,0,1-1.4-1.4V44.871a1.451,1.451,0,0,1,1.4-1.4H36.72a1.239,1.239,0,0,1,.934.4,1.4,1.4,0,0,1,.383,1v8.065Zm-.085-14.6a1.076,1.076,0,0,1-.445.743,1.564,1.564,0,0,1-1,.317H28.656a1.652,1.652,0,0,1-1.019-.317.918.918,0,0,1-.425-.743L26.49,11.971a.834.834,0,0,1,.424-.764,1.583,1.583,0,0,1,1.019-.34h9.34a1.578,1.578,0,0,1,1.019.34.834.834,0,0,1,.423.764Z" transform="translate(0 0)"/></g></g><text class="d" transform="translate(579 347)"><tspan x="0" y="0">Previous Session</tspan></text></g></svg>