<svg xmlns="http://www.w3.org/2000/svg" xmlns:xlink="http://www.w3.org/1999/xlink" width="70" height="65" viewBox="0 0 70 65"><defs><clipPath id="b"><rect width="70" height="65"/></clipPath></defs><g id="a" clip-path="url(#b)"><rect width="70" height="65" fill="rgba(255,255,255,0)"/><g transform="translate(-2432 -10382)"><g transform="translate(2458 10403.869)" fill="#fa6400"><path d="M 24.2189998626709 40.63343811035156 L 24.89042091369629 28.01593780517578 L 24.90723037719727 27.69999694824219 L 24.59083938598633 27.69999694824219 L 5 27.69999694824219 C 2.40841007232666 27.69999694824219 0.300000011920929 25.59158706665039 0.300000011920929 22.99999809265137 L 0.300000011920929 4.999997615814209 C 0.300000011920929 2.40840744972229 2.40841007232666 0.2999975085258484 5 0.2999975085258484 L 38 0.2999975085258484 C 40.59159088134766 0.2999975085258484 42.70000076293945 2.40840744972229 42.70000076293945 4.999997615814209 L 42.70000076293945 22.99999809265137 C 42.70000076293945 25.59158706665039 40.59159088134766 27.69999694824219 38 27.69999694824219 L 35.66717910766602 27.69999694824219 L 35.53100967407227 27.69999694824219 L 35.44136810302734 27.80249786376953 L 24.2189998626709 40.63343811035156 Z" stroke="none"/><path d="M 5 0.5999984741210938 C 2.573829650878906 0.5999984741210938 0.5999984741210938 2.573825836181641 0.5999984741210938 4.999996185302734 L 0.5999984741210938 22.99999809265137 C 0.5999984741210938 25.42616844177246 2.573829650878906 27.39999771118164 5 27.39999771118164 L 25.22361946105957 27.39999771118164 L 24.56469917297363 39.78248596191406 L 35.39482879638672 27.39999771118164 L 38 27.39999771118164 C 40.42617034912109 27.39999771118164 42.40000152587891 25.42616844177246 42.40000152587891 22.99999809265137 L 42.40000152587891 4.999996185302734 C 42.40000152587891 2.573825836181641 40.42617034912109 0.5999984741210938 38 0.5999984741210938 L 5 0.5999984741210938 M 5 -3.814697265625e-06 L 38 -3.814697265625e-06 C 40.76142120361328 -3.814697265625e-06 43 2.238578796386719 43 4.999996185302734 L 43 22.99999809265137 C 43 25.76142883300781 40.76142120361328 27.99999618530273 38 27.99999618530273 L 35.66717147827148 27.99999618530273 L 23.87328910827637 41.48437881469727 L 24.59083938598633 27.99999618530273 L 5 27.99999618530273 C 2.238571166992188 27.99999618530273 0 25.76142883300781 0 22.99999809265137 L 0 4.999996185302734 C 0 2.238578796386719 2.238571166992188 -3.814697265625e-06 5 -3.814697265625e-06 Z" stroke="none" fill="#000"/></g><g transform="translate(2433 10383)" fill="#fac800"><path d="M 18.10915946960449 38.98416519165039 L 7.551030158996582 27.79411888122559 L 7.462230205535889 27.69999885559082 L 7.33282995223999 27.69999885559082 L 5 27.69999885559082 C 2.40841007232666 27.69999885559082 0.300000011920929 25.59158897399902 0.300000011920929 22.99999809265137 L 0.300000011920929 4.999999046325684 C 0.300000011920929 2.408408880233765 2.40841007232666 0.2999989092350006 5 0.2999989092350006 L 38 0.2999989092350006 C 40.59159088134766 0.2999989092350006 42.70000076293945 2.408408880233765 42.70000076293945 4.999999046325684 L 42.70000076293945 22.99999809265137 C 42.70000076293945 25.59158897399902 40.59159088134766 27.69999885559082 38 27.69999885559082 L 18.40916061401367 27.69999885559082 L 18.10915946960449 27.69999885559082 L 18.10915946960449 27.99999809265137 L 18.10915946960449 38.98416519165039 Z" stroke="none"/><path d="M 5 0.5999984741210938 C 2.573829650878906 0.5999984741210938 0.5999984741210938 2.573829650878906 0.5999984741210938 5 L 0.5999984741210938 22.99999809265137 C 0.5999984741210938 25.42616844177246 2.573829650878906 27.39999771118164 5 27.39999771118164 L 7.591621398925781 27.39999771118164 L 17.80916023254395 38.22906112670898 L 17.80916023254395 27.39999771118164 L 38 27.39999771118164 C 40.42617034912109 27.39999771118164 42.40000152587891 25.42616844177246 42.40000152587891 22.99999809265137 L 42.40000152587891 5 C 42.40000152587891 2.573829650878906 40.42617034912109 0.5999984741210938 38 0.5999984741210938 L 5 0.5999984741210938 M 5 0 L 38 0 C 40.76142120361328 0 43 2.238578796386719 43 5 L 43 22.99999809265137 C 43 25.76141929626465 40.76142120361328 28 38 28 L 18.40916061401367 28 L 18.40916061401367 39.7392578125 L 7.332820892333984 28 L 5 28 C 2.238571166992188 28 0 25.76141929626465 0 22.99999809265137 L 0 5 C 0 2.238578796386719 2.238571166992188 0 5 0 Z" stroke="none" fill="#000"/></g><text transform="translate(2448 10403)" fill="#fff" font-size="20" font-family="TimesNewRomanPSMT, Times New Roman"><tspan x="0" y="0">Q</tspan></text><text transform="translate(2472 10424)" fill="#fff" font-size="20" font-family="TimesNewRomanPSMT, Times New Roman"><tspan x="0" y="0">A</tspan></text></g></g></svg>